<?xml version="1.0" encoding="UTF-8"?>
<svg id="Layer_1" data-name="Layer 1" xmlns="http://www.w3.org/2000/svg" viewBox="0 0 640 200">
  <defs>
    <style>
      .cls-1 {
        letter-spacing: .03em;
      }

      .cls-2 {
        letter-spacing: -.04em;
      }

      .cls-3 {
        letter-spacing: -.06em;
      }

      .cls-4 {
        letter-spacing: -.06em;
      }

      .cls-5 {
        letter-spacing: -.06em;
      }

      .cls-6 {
        letter-spacing: -.05em;
      }

      .cls-7 {
        letter-spacing: -.04em;
      }

      .cls-8 {
        letter-spacing: -.05em;
      }

      .cls-9 {
        letter-spacing: -.02em;
      }

      .cls-10 {
        letter-spacing: -.04em;
      }

      .cls-11 {
        letter-spacing: -.06em;
      }

      .cls-12 {
        letter-spacing: -.06em;
      }

      .cls-13 {
        letter-spacing: -.06em;
      }

      .cls-14 {
        letter-spacing: 0em;
      }

      .cls-15 {
        font-family: GongGothicOTFMedium-KSCpc-EUC-H, 'Gong Gothic OTF';
        font-size: 135px;
      }

      .cls-15, .cls-16 {
        fill: #34495e;
      }

      .cls-17 {
        letter-spacing: -.06em;
      }

      .cls-18 {
        letter-spacing: -.05em;
      }

      .cls-19 {
        opacity: .4;
      }

      .cls-20 {
        letter-spacing: -.04em;
      }

      .cls-21, .cls-22 {
        opacity: .6;
      }

      .cls-23 {
        opacity: .5;
      }

      .cls-24 {
        opacity: .9;
      }

      .cls-25 {
        opacity: .8;
      }

      .cls-26 {
        opacity: .7;
      }

      .cls-27 {
        opacity: .95;
      }

      .cls-28 {
        letter-spacing: -.06em;
      }

      .cls-29 {
        fill: #919eaa;
        font-family: GongGothicOTFLight-KSCpc-EUC-H, 'Gong Gothic OTF';
        font-size: 28px;
      }

      .cls-30 {
        fill: #fff;
        stroke: #fff;
        stroke-miterlimit: 10;
        stroke-width: 12px;
      }

      .cls-31 {
        letter-spacing: -.07em;
      }

      .cls-22, .cls-32 {
        fill: #fa9319;
      }

      .cls-22, .cls-32, .cls-33, .cls-34, .cls-35, .cls-16, .cls-36, .cls-37, .cls-38, .cls-39, .cls-40 {
        stroke-width: 0px;
      }

      .cls-41 {
        letter-spacing: -.07em;
      }

      .cls-42 {
        letter-spacing: -.06em;
      }

      .cls-43 {
        letter-spacing: -.07em;
      }

      .cls-44 {
        letter-spacing: -.06em;
      }

      .cls-45 {
        letter-spacing: -.06em;
      }

      .cls-33 {
        fill: #9aa4ae;
      }

      .cls-34 {
        fill: #86929f;
      }

      .cls-35 {
        fill: #399adb;
      }

      .cls-36 {
        fill: #c3c8cf;
      }

      .cls-37 {
        fill: #d4d6d8;
      }

      .cls-38 {
        fill: #adb7be;
      }

      .cls-39 {
        fill: #f0f1f2;
      }

      .cls-40 {
        fill: #e5e5e5;
      }

      .cls-46 {
        letter-spacing: -.05em;
      }
    </style>
  </defs>
  <g class="cls-27">
    <text class="cls-15" transform="translate(221.84 127.76)"><tspan class="cls-14" x="0" y="0">A</tspan><tspan class="cls-1" x="105.57" y="0">EM</tspan><tspan class="cls-9" x="333.72" y="0">L</tspan></text>
    <text class="cls-29" transform="translate(197.44 171.61)"><tspan class="cls-7" x="0" y="0">A</tspan><tspan class="cls-10" x="19.99" y="0">d</tspan><tspan class="cls-46" x="35.98" y="0">v</tspan><tspan class="cls-28" x="50.59" y="0">a</tspan><tspan class="cls-12" x="65.32" y="0">n</tspan><tspan class="cls-3" x="80.86" y="0">c</tspan><tspan class="cls-45" x="95.87" y="0">e</tspan><tspan class="cls-11" x="110.97" y="0">d </tspan><tspan class="cls-4" x="132.05" y="0">E</tspan><tspan class="cls-41" x="147.98" y="0">l</tspan><tspan class="cls-17" x="152.77" y="0">e</tspan><tspan class="cls-6" x="167.86" y="0">c</tspan><tspan class="cls-8" x="183.27" y="0">t</tspan><tspan class="cls-20" x="193.87" y="0">r</tspan><tspan class="cls-42" x="203.86" y="0">o</tspan><tspan class="cls-11" x="219.04" y="0">n </tspan><tspan class="cls-31" x="240.24" y="0">M</tspan><tspan class="cls-43" x="264.07" y="0">i</tspan><tspan class="cls-12" x="268.77" y="0">c</tspan><tspan class="cls-20" x="283.75" y="0">r</tspan><tspan class="cls-44" x="293.74" y="0">o</tspan><tspan class="cls-5" x="309.13" y="0">s</tspan><tspan class="cls-3" x="323.92" y="0">c</tspan><tspan class="cls-42" x="338.93" y="0">o</tspan><tspan class="cls-18" x="354.11" y="0">p</tspan><tspan class="cls-11" x="369.94" y="0">y </tspan><tspan class="cls-2" x="389.88" y="0">L</tspan><tspan class="cls-13" x="403.99" y="0">a</tspan><tspan class="cls-11" x="418.75" y="0">b</tspan></text>
  </g>
  <g>
    <polygon class="cls-30" points="100 8.46 6.74 83.06 6.74 116.94 100 191.54 193.26 116.94 193.26 83.06 100 8.46"/>
    <g>
      <polygon class="cls-22" points="100 191.54 193.26 116.94 193.26 99.46 100 174.07 100 191.54"/>
      <polygon class="cls-32" points="100 191.54 6.74 116.94 6.74 99.46 100 174.07 100 191.54"/>
      <g>
        <g id="_Grid_Repeat_" data-name="&amp;lt;Grid Repeat&amp;gt;">
          <polygon class="cls-34" points="100 141.51 119.03 156.74 100 171.96 80.97 156.74 100 141.51"/>
        </g>
        <g id="_Grid_Repeat_-2" data-name="&amp;lt;Grid Repeat&amp;gt;">
          <polygon class="cls-33" points="75.26 121.72 94.29 136.95 75.26 152.17 56.23 136.95 75.26 121.72"/>
        </g>
        <g id="_Grid_Repeat_-3" data-name="&amp;lt;Grid Repeat&amp;gt;">
          <polygon class="cls-38" points="50.52 101.93 69.55 117.15 50.52 132.38 31.49 117.15 50.52 101.93"/>
        </g>
        <g id="_Grid_Repeat_-4" data-name="&amp;lt;Grid Repeat&amp;gt;">
          <polygon class="cls-36" points="25.78 82.14 44.81 97.36 25.78 112.59 6.74 97.36 25.78 82.14"/>
        </g>
        <g id="_Grid_Repeat_-5" data-name="&amp;lt;Grid Repeat&amp;gt;">
          <polygon class="cls-33" points="124.74 121.72 143.77 136.95 124.74 152.17 105.71 136.95 124.74 121.72"/>
        </g>
        <g id="_Grid_Repeat_-6" data-name="&amp;lt;Grid Repeat&amp;gt;">
          <polygon class="cls-38" points="100 101.93 119.03 117.15 100 132.38 80.97 117.15 100 101.93"/>
        </g>
        <g id="_Grid_Repeat_-7" data-name="&amp;lt;Grid Repeat&amp;gt;">
          <polygon class="cls-36" points="75.26 82.14 94.29 97.36 75.26 112.59 56.23 97.36 75.26 82.14"/>
        </g>
        <g id="_Grid_Repeat_-8" data-name="&amp;lt;Grid Repeat&amp;gt;">
          <polygon class="cls-37" points="50.52 62.34 69.55 77.57 50.52 92.79 31.49 77.57 50.52 62.34"/>
        </g>
        <g id="_Grid_Repeat_-9" data-name="&amp;lt;Grid Repeat&amp;gt;">
          <polygon class="cls-38" points="149.48 101.93 168.51 117.15 149.48 132.38 130.45 117.15 149.48 101.93"/>
        </g>
        <g id="_Grid_Repeat_-10" data-name="&amp;lt;Grid Repeat&amp;gt;">
          <polygon class="cls-36" points="124.74 82.14 143.77 97.36 124.74 112.59 105.71 97.36 124.74 82.14"/>
        </g>
        <g id="_Grid_Repeat_-11" data-name="&amp;lt;Grid Repeat&amp;gt;">
          <polygon class="cls-37" points="100 62.34 119.03 77.57 100 92.79 80.97 77.57 100 62.34"/>
        </g>
        <g id="_Grid_Repeat_-12" data-name="&amp;lt;Grid Repeat&amp;gt;">
          <polygon class="cls-40" points="75.26 42.55 94.29 57.77 75.26 73 56.23 57.77 75.26 42.55"/>
        </g>
        <g id="_Grid_Repeat_-13" data-name="&amp;lt;Grid Repeat&amp;gt;">
          <polygon class="cls-36" points="174.22 82.14 193.26 97.36 174.22 112.59 155.19 97.36 174.22 82.14"/>
        </g>
        <g id="_Grid_Repeat_-14" data-name="&amp;lt;Grid Repeat&amp;gt;">
          <polygon class="cls-37" points="149.48 62.34 168.51 77.57 149.48 92.79 130.45 77.57 149.48 62.34"/>
        </g>
        <g id="_Grid_Repeat_-15" data-name="&amp;lt;Grid Repeat&amp;gt;">
          <polygon class="cls-40" points="124.74 42.55 143.77 57.77 124.74 73 105.71 57.77 124.74 42.55"/>
        </g>
        <g id="_Grid_Repeat_-16" data-name="&amp;lt;Grid Repeat&amp;gt;">
          <polygon class="cls-39" points="100 22.76 119.03 37.98 100 53.21 80.97 37.98 100 22.76"/>
        </g>
      </g>
      <g>
        <g id="_Grid_Repeat_-17" data-name="&amp;lt;Grid Repeat&amp;gt;">
          <polygon class="cls-35" points="100 38.91 80.97 23.68 100 8.46 119.03 23.68 100 38.91"/>
        </g>
        <g id="_Grid_Repeat_-18" data-name="&amp;lt;Grid Repeat&amp;gt;" class="cls-24">
          <polygon class="cls-35" points="124.74 58.7 105.71 43.48 124.74 28.25 143.77 43.48 124.74 58.7"/>
        </g>
        <g id="_Grid_Repeat_-19" data-name="&amp;lt;Grid Repeat&amp;gt;" class="cls-25">
          <polygon class="cls-35" points="149.48 78.49 130.45 63.27 149.48 48.04 168.51 63.27 149.48 78.49"/>
        </g>
        <g id="_Grid_Repeat_-20" data-name="&amp;lt;Grid Repeat&amp;gt;" class="cls-26">
          <polygon class="cls-35" points="174.22 98.29 155.19 83.06 174.22 67.84 193.26 83.06 174.22 98.29"/>
        </g>
        <g id="_Grid_Repeat_-21" data-name="&amp;lt;Grid Repeat&amp;gt;" class="cls-24">
          <polygon class="cls-35" points="75.26 58.7 56.23 43.48 75.26 28.25 94.29 43.48 75.26 58.7"/>
        </g>
        <g id="_Grid_Repeat_-22" data-name="&amp;lt;Grid Repeat&amp;gt;" class="cls-25">
          <polygon class="cls-35" points="100 78.49 80.97 63.27 100 48.04 119.03 63.27 100 78.49"/>
        </g>
        <g id="_Grid_Repeat_-23" data-name="&amp;lt;Grid Repeat&amp;gt;" class="cls-26">
          <polygon class="cls-35" points="124.74 98.29 105.71 83.06 124.74 67.84 143.77 83.06 124.74 98.29"/>
        </g>
        <g id="_Grid_Repeat_-24" data-name="&amp;lt;Grid Repeat&amp;gt;" class="cls-21">
          <polygon class="cls-35" points="149.48 118.08 130.45 102.85 149.48 87.63 168.51 102.85 149.48 118.08"/>
        </g>
        <g id="_Grid_Repeat_-25" data-name="&amp;lt;Grid Repeat&amp;gt;" class="cls-25">
          <polygon class="cls-35" points="50.52 78.49 31.49 63.27 50.52 48.04 69.55 63.27 50.52 78.49"/>
        </g>
        <g id="_Grid_Repeat_-26" data-name="&amp;lt;Grid Repeat&amp;gt;" class="cls-26">
          <polygon class="cls-35" points="75.26 98.29 56.23 83.06 75.26 67.84 94.29 83.06 75.26 98.29"/>
        </g>
        <g id="_Grid_Repeat_-27" data-name="&amp;lt;Grid Repeat&amp;gt;" class="cls-21">
          <polygon class="cls-35" points="100 118.08 80.97 102.85 100 87.63 119.03 102.85 100 118.08"/>
        </g>
        <g id="_Grid_Repeat_-28" data-name="&amp;lt;Grid Repeat&amp;gt;" class="cls-23">
          <polygon class="cls-35" points="124.74 137.87 105.71 122.65 124.74 107.42 143.77 122.65 124.74 137.87"/>
        </g>
        <g id="_Grid_Repeat_-29" data-name="&amp;lt;Grid Repeat&amp;gt;" class="cls-26">
          <polygon class="cls-35" points="25.78 98.29 6.74 83.06 25.78 67.84 44.81 83.06 25.78 98.29"/>
        </g>
        <g id="_Grid_Repeat_-30" data-name="&amp;lt;Grid Repeat&amp;gt;" class="cls-21">
          <polygon class="cls-35" points="50.52 118.08 31.49 102.85 50.52 87.63 69.55 102.85 50.52 118.08"/>
        </g>
        <g id="_Grid_Repeat_-31" data-name="&amp;lt;Grid Repeat&amp;gt;" class="cls-23">
          <polygon class="cls-35" points="75.26 137.87 56.23 122.65 75.26 107.42 94.29 122.65 75.26 137.87"/>
        </g>
        <g id="_Grid_Repeat_-32" data-name="&amp;lt;Grid Repeat&amp;gt;" class="cls-19">
          <polygon class="cls-35" points="100 157.67 80.97 142.44 100 127.21 119.03 142.44 100 157.67"/>
        </g>
        <ellipse class="cls-16" cx="100" cy="23.68" rx="5.23" ry="4.19"/>
        <ellipse class="cls-16" cx="124.74" cy="43.48" rx="4.58" ry="3.66"/>
        <ellipse class="cls-16" cx="124.74" cy="83.06" rx="3.27" ry="2.62"/>
        <ellipse class="cls-16" cx="100" cy="102.85" rx="3.93" ry="3.14"/>
        <ellipse class="cls-16" cx="75.26" cy="122.65" rx="5.23" ry="4.19"/>
        <ellipse class="cls-16" cx="25.78" cy="83.06" rx="5.23" ry="4.19"/>
        <ellipse class="cls-16" cx="75.26" cy="83.06" rx="4.58" ry="3.66"/>
        <ellipse class="cls-16" cx="50.52" cy="63.27" rx="3.93" ry="3.14"/>
        <ellipse class="cls-16" cx="75.26" cy="43.48" rx="4.58" ry="3.66"/>
      </g>
    </g>
  </g>
</svg>