<?xml version="1.0" encoding="UTF-8"?>
<svg id="Layer_1" data-name="Layer 1" xmlns="http://www.w3.org/2000/svg" viewBox="0 0 200 200">
  <defs>
    <style>
      .cls-1 {
        fill: #e44126;
        stroke-width: 0px;
      }
    </style>
  </defs>
  <path class="cls-1" d="M99.02,94V17.22h-24.56v2.94h.07c7.66,1.32,10.25,4.7,10.25,13.38v60.45h14.24Z"/>
  <path class="cls-1" d="M76.32,54.12h-9.55l-32.21,39.99v-39.75H10v2.94h.07c7.37.96,10.25,4.7,10.25,13.37v65.97h14.24v-40.37l30.22,40.37h16.59s-34.09-45.64-34.16-45.74c.08-.1,29.12-36.79,29.12-36.79Z"/>
  <path class="cls-1" d="M127.06,131.71c-9.36-4.71-18.19-9.15-18.19-17.92,0-7.14,4.11-11.19,12.21-12.03,8.55-.89,17.94,2.8,21.15,4.73l.12.08v-8.9l-.06-.02c-3.93-.92-12.26-2.47-18.55-2.47-17.96,0-29.12,8.52-29.12,22.23s11.64,20.03,22.9,25.77c9.62,4.9,18.7,9.54,18.7,18.93,0,12.58-10.15,14.46-16.2,14.46-7.28,0-15.62-2.44-24.81-7.26l-.12-.06v9.95l.06.02c2.6.83,11.95,3.55,23.11,3.55,20.77,0,32.21-8.8,32.21-24.79,0-14.51-12.43-20.76-23.4-26.28Z"/>
  <path class="cls-1" d="M189.92,54.12h-65.51v18.27h3.48v-.07c.79-9.32,4-12.16,13.75-12.16h10.33v76.5h14.24V60.05h23.79v-5.93h-.08Z"/>
</svg>